<svg xmlns="http://www.w3.org/2000/svg" width="24" height="24" viewBox="0 0 24 24"><path fill="#0047BB" d="M3.25,18.05 C2.66666667,18.05 2.16266667,17.8416667 1.738,17.425 C1.31266667,17.0083333 1.1,16.5 1.1,15.9 L1.1,3.25 L1.075,3.25 C0.775,3.25 0.520666667,3.14166667 0.312,2.925 C0.104,2.70833333 0,2.45833333 0,2.175 C0,1.875 0.104,1.62066667 0.312,1.412 C0.520666667,1.204 0.775,1.1 1.075,1.1 L5.175,1.1 C5.175,0.783333333 5.275,0.520666667 5.475,0.312 C5.675,0.104 5.925,-4.4408921e-16 6.225,-4.4408921e-16 L10.3,-4.4408921e-16 C10.6,-4.4408921e-16 10.85,0.104 11.05,0.312 C11.25,0.520666667 11.35,0.783333333 11.35,1.1 L15.45,1.1 C15.75,1.1 16.0043333,1.204 16.213,1.412 C16.421,1.62066667 16.525,1.875 16.525,2.175 C16.525,2.45833333 16.421,2.70833333 16.213,2.925 C16.0043333,3.14166667 15.75,3.25 15.45,3.25 L15.425,3.25 L15.425,15.9 C15.425,16.5 15.2126667,17.0083333 14.788,17.425 C14.3626667,17.8416667 13.8583333,18.05 13.275,18.05 L3.25,18.05 Z M3.25,3.25 L3.25,15.9 C3.25,15.9 3.25,15.9 3.25,15.9 C3.25,15.9 3.25,15.9 3.25,15.9 L13.275,15.9 C13.275,15.9 13.275,15.9 13.275,15.9 C13.275,15.9 13.275,15.9 13.275,15.9 L13.275,3.25 L3.25,3.25 Z M5.275,13 C5.275,13.2833333 5.37066667,13.5206667 5.562,13.712 C5.754,13.904 5.99166667,14 6.275,14 C6.54166667,14 6.775,13.904 6.975,13.712 C7.175,13.5206667 7.275,13.2833333 7.275,13 L7.275,6.15 C7.275,5.86666667 7.175,5.625 6.975,5.425 C6.775,5.225 6.54166667,5.125 6.275,5.125 C5.99166667,5.125 5.754,5.225 5.562,5.425 C5.37066667,5.625 5.275,5.86666667 5.275,6.15 L5.275,13 Z M9.25,13 C9.25,13.2833333 9.35,13.5206667 9.55,13.712 C9.75,13.904 9.98333333,14 10.25,14 C10.5333333,14 10.771,13.904 10.963,13.712 C11.1543333,13.5206667 11.25,13.2833333 11.25,13 L11.25,6.15 C11.25,5.86666667 11.1543333,5.625 10.963,5.425 C10.771,5.225 10.5333333,5.125 10.25,5.125 C9.98333333,5.125 9.75,5.225 9.55,5.425 C9.35,5.625 9.25,5.86666667 9.25,6.15 L9.25,13 Z M3.25,3.25 L3.25,15.9 C3.25,15.9 3.25,15.9 3.25,15.9 C3.25,15.9 3.25,15.9 3.25,15.9 C3.25,15.9 3.25,15.9 3.25,15.9 C3.25,15.9 3.25,15.9 3.25,15.9 L3.25,3.25 Z" transform="translate(4 3)"/></svg>