<svg xmlns="http://www.w3.org/2000/svg" width="24" height="24" viewBox="0 0 24 24"><path fill="#FFF" d="M2.15,19.9 C1.56666667,19.9 1.06266667,19.6916667 0.638,19.275 C0.212666667,18.8583333 0,18.35 0,17.75 L0,6.175 C0,5.575 0.212666667,5.06666667 0.638,4.65 C1.06266667,4.23333333 1.56666667,4.025 2.15,4.025 L3.925,4.025 C3.94166667,2.90833333 4.346,1.95833333 5.138,1.175 C5.92933333,0.391666667 6.88333333,-8.8817842e-16 8,-8.8817842e-16 C9.11666667,-8.8817842e-16 10.071,0.391666667 10.863,1.175 C11.6543333,1.95833333 12.0583333,2.90833333 12.075,4.025 L13.85,4.025 C14.4333333,4.025 14.9376667,4.23333333 15.363,4.65 C15.7876667,5.06666667 16,5.575 16,6.175 L16,17.75 C16,18.35 15.7876667,18.8583333 15.363,19.275 C14.9376667,19.6916667 14.4333333,19.9 13.85,19.9 L2.15,19.9 Z M6.075,4.025 L9.925,4.025 C9.90833333,3.49166667 9.71266667,3.04566667 9.338,2.687 C8.96266667,2.329 8.51666667,2.15 8,2.15 C7.48333333,2.15 7.03766667,2.33333333 6.663,2.7 C6.28766667,3.06666667 6.09166667,3.50833333 6.075,4.025 L6.075,4.025 Z M2.15,17.75 L13.85,17.75 L13.85,6.175 L12.075,6.175 L12.075,8.1 C12.075,8.38333333 11.9706667,8.63333333 11.762,8.85 C11.554,9.06666667 11.3,9.175 11,9.175 C10.7,9.175 10.446,9.06666667 10.238,8.85 C10.0293333,8.63333333 9.925,8.38333333 9.925,8.1 L9.925,6.175 L6.075,6.175 L6.075,8.1 C6.075,8.38333333 5.971,8.63333333 5.763,8.85 C5.55433333,9.06666667 5.3,9.175 5,9.175 C4.7,9.175 4.446,9.06666667 4.238,8.85 C4.02933333,8.63333333 3.925,8.38333333 3.925,8.1 L3.925,6.175 L2.15,6.175 L2.15,17.75 L2.15,17.75 Z M2.15,17.75 L2.15,6.175 L2.15,17.75 L2.15,17.75 Z" transform="translate(4 2)"/></svg>