<svg xmlns="http://www.w3.org/2000/svg" width="24" height="24" viewBox="0 0 24 24"><path fill="#FFF" d="M4.20263615,15.2 C3.78596949,15.5166667 3.36530282,15.525 2.94063615,15.225 C2.51530282,14.925 2.37763615,14.525 2.52763615,14.025 L3.87763615,9.675 L0.452636153,7.225 C0.0359694863,6.94166667 -0.0930305137,6.55 0.065636153,6.05 C0.223636153,5.55 0.560969486,5.3 1.07763615,5.3 L5.27763615,5.3 L6.65263615,0.75 C6.73596949,0.5 6.87363615,0.312333333 7.06563615,0.187 C7.25696949,0.0623333333 7.46096949,0 7.67763615,0 C7.89430282,0 8.09863615,0.0623333333 8.29063615,0.187 C8.48196949,0.312333333 8.61930282,0.5 8.70263615,0.75 L10.0776362,5.3 L14.2776362,5.3 C14.7943028,5.3 15.1319695,5.55 15.2906362,6.05 C15.4486362,6.55 15.3193028,6.94166667 14.9026362,7.225 L11.4776362,9.675 L12.8276362,14.025 C12.9776362,14.525 12.8403028,14.925 12.4156362,15.225 C11.9903028,15.525 11.5693028,15.5166667 11.1526362,15.2 L7.67763615,12.55 L4.20263615,15.2 Z" transform="translate(4 4)"/></svg>